<svg xmlns="http://www.w3.org/2000/svg" version="1.1" xmlns:xlink="http://www.w3.org/1999/xlink" xmlns:svgjs="http://svgjs.dev/svgjs" width="32" height="32"><svg width="32" height="32" viewBox="0 0 32 32" fill="none" xmlns="http://www.w3.org/2000/svg">
<g clip-path="url(#clip0_8_2)">
<path d="M12.8301 27.2393L14.2319 26.2905L14.5293 26.3896C14.5104 26.569 14.501 26.7153 14.501 26.8286C14.501 27.4139 14.6803 27.8953 15.0391 28.2729C15.4072 28.6506 15.8509 28.8394 16.3701 28.8394C16.71 28.8394 17.064 28.7497 17.4321 28.5703C17.8097 28.4004 18.1496 28.1361 18.4517 27.7773C18.8576 27.3053 19.3013 26.5312 19.7827 25.4551C20.2642 24.3883 20.807 22.8449 21.4111 20.8247L22.5015 16.8882C21.8123 17.936 21.109 18.847 20.3916 19.6211C19.1549 20.9805 18.3337 21.7782 17.9277 22.0142C17.5312 22.2596 17.2008 22.3823 16.9365 22.3823C16.6344 22.3823 16.3796 22.2266 16.1719 21.915C15.8415 21.443 15.6763 20.7539 15.6763 19.8477C15.6763 19.4889 15.7424 18.7337 15.8745 17.582C16.1011 15.5146 16.2144 13.6927 16.2144 12.1162C16.2144 11.4837 16.1813 11.0259 16.1152 10.7427C16.0775 10.5633 16.0114 10.4312 15.917 10.3462C15.8509 10.2896 15.7707 10.2612 15.6763 10.2612C15.3931 10.2612 14.7983 10.6105 13.8921 11.3091C13.7316 11.4318 13.6136 11.5168 13.5381 11.564L13.1558 11.0542C14.2603 10.1102 15.2798 9.34554 16.2144 8.76025C16.743 8.42985 17.1631 8.26465 17.4746 8.26465C17.7484 8.26465 17.9655 8.38265 18.126 8.61865C18.2959 8.85465 18.3809 9.3361 18.3809 10.063C18.3809 10.6766 18.2959 11.9699 18.126 13.9429C17.9183 16.2557 17.8145 17.9313 17.8145 18.9697C17.8145 19.4512 17.8711 19.7769 17.9844 19.9468C18.0788 20.0695 18.2062 20.1309 18.3667 20.1309C18.5272 20.1309 18.6877 20.0884 18.8481 20.0034C19.2069 19.8052 19.6317 19.4512 20.1226 18.9414C20.6229 18.4316 21.0949 17.8464 21.5386 17.1855C22.2749 16.1094 22.8979 14.8633 23.4077 13.4473C23.7287 12.5882 24.1582 11.0306 24.6963 8.77441C25.2533 8.68945 25.966 8.51009 26.8345 8.23633L27.146 8.51953C26.8817 9.0765 26.6221 9.73258 26.3672 10.4878C25.9235 11.7716 25.3146 13.7446 24.5405 16.4067C23.9175 18.5685 23.4502 20.1025 23.1387 21.0088C22.5628 22.7458 21.9634 24.1618 21.3403 25.2568C20.7267 26.3519 19.9762 27.3242 19.0889 28.1738C18.4281 28.8158 17.7625 29.2783 17.0923 29.5615C16.4315 29.8542 15.8037 30.0005 15.209 30.0005C14.7936 30.0005 14.383 29.8966 13.9771 29.689C13.5711 29.4907 13.2643 29.2122 13.0566 28.8535C12.8584 28.5042 12.7593 28.1266 12.7593 27.7207C12.7593 27.5791 12.7829 27.4186 12.8301 27.2393Z" fill="#19B3BD"></path>
<path d="M24.995 3.685C24.995 5.215 23.375 5.215 22.79 5.215H15.23L12.215 20.605C12.08 21.28 11.855 22.54 10.37 22.54C9.38 22.54 9.065 21.82 9.065 21.325C9.065 21.145 9.335 20.2 9.515 19.66L13.925 5.215H10.19C9.245 5.215 6.68 5.215 4.475 8.68C4.205 9.04 4.115 9.22 3.755 9.22C3.215 9.22 3.215 8.77 3.215 8.77C3.215 8.5 4.475 6.34 5.96 4.72C7.94 2.605 9.695 2.605 10.595 2.605H23.195C24.05 2.605 24.995 2.605 24.995 3.685Z" fill="black"></path>
</g>
<defs>
<clipPath id="SvgjsClipPath1006">
<rect width="32" height="32" fill="white"></rect>
</clipPath>
</defs>
</svg><style>@media (prefers-color-scheme: light) { :root { filter: none; } }
@media (prefers-color-scheme: dark) { :root { filter: none; } }
</style></svg>