<svg xmlns="http://www.w3.org/2000/svg" version="1.1" xmlns:xlink="http://www.w3.org/1999/xlink" xmlns:svgjs="http://svgjs.dev/svgjs" width="32" height="32"><svg width="32" height="32" viewBox="0 0 32 32" fill="none" xmlns="http://www.w3.org/2000/svg">
<g clip-path="url(#clip0_13_50)">
<path d="M12.8301 28.2393L14.2319 27.2905L14.5293 27.3896C14.5104 27.569 14.501 27.7153 14.501 27.8286C14.501 28.4139 14.6803 28.8953 15.0391 29.2729C15.4072 29.6506 15.8509 29.8394 16.3701 29.8394C16.71 29.8394 17.064 29.7497 17.4321 29.5703C17.8097 29.4004 18.1496 29.1361 18.4517 28.7773C18.8576 28.3053 19.3013 27.5312 19.7827 26.4551C20.2642 25.3883 20.807 23.8449 21.4111 21.8247L22.5015 17.8882C21.8123 18.936 21.109 19.847 20.3916 20.6211C19.1549 21.9805 18.3337 22.7782 17.9277 23.0142C17.5312 23.2596 17.2008 23.3823 16.9365 23.3823C16.6344 23.3823 16.3796 23.2266 16.1719 22.915C15.8415 22.443 15.6763 21.7539 15.6763 20.8477C15.6763 20.4889 15.7424 19.7337 15.8745 18.582C16.1011 16.5146 16.2144 14.6927 16.2144 13.1162C16.2144 12.4837 16.1813 12.0259 16.1152 11.7427C16.0775 11.5633 16.0114 11.4312 15.917 11.3462C15.8509 11.2896 15.7707 11.2612 15.6763 11.2612C15.3931 11.2612 14.7983 11.6105 13.8921 12.3091C13.7316 12.4318 13.6136 12.5168 13.5381 12.564L13.1558 12.0542C14.2603 11.1102 15.2798 10.3455 16.2144 9.76025C16.743 9.42985 17.1631 9.26465 17.4746 9.26465C17.7484 9.26465 17.9655 9.38265 18.126 9.61865C18.2959 9.85465 18.3809 10.3361 18.3809 11.063C18.3809 11.6766 18.2959 12.9699 18.126 14.9429C17.9183 17.2557 17.8145 18.9313 17.8145 19.9697C17.8145 20.4512 17.8711 20.7769 17.9844 20.9468C18.0788 21.0695 18.2062 21.1309 18.3667 21.1309C18.5272 21.1309 18.6877 21.0884 18.8481 21.0034C19.2069 20.8052 19.6317 20.4512 20.1226 19.9414C20.6229 19.4316 21.0949 18.8464 21.5386 18.1855C22.2749 17.1094 22.8979 15.8633 23.4077 14.4473C23.7287 13.5882 24.1582 12.0306 24.6963 9.77441C25.2533 9.68945 25.966 9.51009 26.8345 9.23633L27.146 9.51953C26.8817 10.0765 26.6221 10.7326 26.3672 11.4878C25.9235 12.7716 25.3146 14.7446 24.5405 17.4067C23.9175 19.5685 23.4502 21.1025 23.1387 22.0088C22.5628 23.7458 21.9634 25.1618 21.3403 26.2568C20.7267 27.3519 19.9762 28.3242 19.0889 29.1738C18.4281 29.8158 17.7625 30.2783 17.0923 30.5615C16.4315 30.8542 15.8037 31.0005 15.209 31.0005C14.7936 31.0005 14.383 30.8966 13.9771 30.689C13.5711 30.4907 13.2643 30.2122 13.0566 29.8535C12.8584 29.5042 12.7593 29.1266 12.7593 28.7207C12.7593 28.5791 12.7829 28.4186 12.8301 28.2393Z" fill="#19B3BD"></path>
<path d="M24.995 4.685C24.995 6.215 23.375 6.215 22.79 6.215H15.23L12.215 21.605C12.08 22.28 11.855 23.54 10.37 23.54C9.38 23.54 9.065 22.82 9.065 22.325C9.065 22.145 9.335 21.2 9.515 20.66L13.925 6.215H10.19C9.245 6.215 6.68 6.215 4.475 9.68C4.205 10.04 4.115 10.22 3.755 10.22C3.215 10.22 3.215 9.77 3.215 9.77C3.215 9.5 4.475 7.34 5.96 5.72C7.94 3.605 9.695 3.605 10.595 3.605H23.195C24.05 3.605 24.995 3.605 24.995 4.685Z" fill="black"></path>
</g>
<defs>
<clipPath id="SvgjsClipPath1033">
<rect width="32" height="32" fill="white"></rect>
</clipPath>
</defs>
</svg><style>@media (prefers-color-scheme: light) { :root { filter: none; } }
@media (prefers-color-scheme: dark) { :root { filter: none; } }
</style></svg>