<svg xmlns="http://www.w3.org/2000/svg" version="1.1" xmlns:xlink="http://www.w3.org/1999/xlink" xmlns:svgjs="http://svgjs.dev/svgjs" width="32" height="32"><svg width="32" height="32" viewBox="0 0 32 32" fill="none" xmlns="http://www.w3.org/2000/svg">
<g clip-path="url(#clip0_12_31)">
<rect x="11" y="11" width="21" height="21" fill="white"></rect>
<rect width="21" height="21" fill="white"></rect>
<circle cx="21" cy="11" r="11" fill="white"></circle>
<circle cx="11" cy="21" r="11" fill="white"></circle>
<line x1="2" y1="2.25" x2="9" y2="2.25" stroke="black" stroke-width="0.5"></line>
<line x1="2.25" y1="9" x2="2.25" y2="2" stroke="black" stroke-width="0.5"></line>
<line x1="30" y1="29.75" x2="23" y2="29.75" stroke="#19B3BD" stroke-width="0.5"></line>
<line x1="29.75" y1="23" x2="29.75" y2="30" stroke="#19B3BD" stroke-width="0.5"></line>
<path d="M14.4711 25.9746L15.5346 25.2549L15.7602 25.3301C15.7458 25.4661 15.7387 25.5771 15.7387 25.6631C15.7387 26.1071 15.8747 26.4723 16.1469 26.7588C16.4262 27.0452 16.7628 27.1885 17.1566 27.1885C17.4145 27.1885 17.683 27.1204 17.9623 26.9844C18.2488 26.8555 18.5066 26.6549 18.7357 26.3828C19.0437 26.0247 19.3803 25.4375 19.7455 24.6211C20.1107 23.8118 20.5225 22.641 20.9809 21.1084L21.808 18.1221C21.2852 18.917 20.7517 19.6081 20.2074 20.1953C19.2693 21.2266 18.6462 21.8317 18.3383 22.0107C18.0375 22.1969 17.7869 22.29 17.5863 22.29C17.3572 22.29 17.1638 22.1719 17.0063 21.9355C16.7556 21.5775 16.6303 21.0547 16.6303 20.3672C16.6303 20.0951 16.6804 19.5221 16.7807 18.6484C16.9525 17.0801 17.0385 15.6979 17.0385 14.502C17.0385 14.0221 17.0134 13.6748 16.9633 13.46C16.9346 13.3239 16.8845 13.2236 16.8129 13.1592C16.7628 13.1162 16.7019 13.0947 16.6303 13.0947C16.4154 13.0947 15.9643 13.3597 15.2768 13.8896C15.155 13.9827 15.0655 14.0472 15.0082 14.083L14.7182 13.6963C15.5561 12.9801 16.3295 12.4001 17.0385 11.9561C17.4395 11.7054 17.7582 11.5801 17.9945 11.5801C18.2022 11.5801 18.3669 11.6696 18.4887 11.8486C18.6176 12.0277 18.682 12.3929 18.682 12.9443C18.682 13.4098 18.6176 14.391 18.4887 15.8877C18.3311 17.6423 18.2523 18.9134 18.2523 19.7012C18.2523 20.0664 18.2953 20.3135 18.3813 20.4424C18.4529 20.5355 18.5496 20.582 18.6713 20.582C18.793 20.582 18.9148 20.5498 19.0365 20.4854C19.3087 20.335 19.6309 20.0664 20.0033 19.6797C20.3829 19.293 20.741 18.849 21.0775 18.3477C21.6361 17.5312 22.1088 16.5859 22.4955 15.5117C22.739 14.86 23.0648 13.6784 23.4731 11.9668C23.8956 11.9023 24.4363 11.7663 25.0951 11.5586L25.3315 11.7734C25.1309 12.196 24.934 12.6937 24.7406 13.2666C24.404 14.2406 23.9421 15.7373 23.3549 17.7568C22.8822 19.3968 22.5277 20.5605 22.2914 21.248C21.8546 22.5658 21.3998 23.64 20.9272 24.4707C20.4617 25.3014 19.8923 26.0391 19.2191 26.6836C18.7178 27.1706 18.213 27.5215 17.7045 27.7363C17.2032 27.9583 16.727 28.0693 16.2758 28.0693C15.9607 28.0693 15.6492 27.9906 15.3412 27.833C15.0333 27.6826 14.8005 27.4714 14.643 27.1992C14.4926 26.9342 14.4174 26.6478 14.4174 26.3398C14.4174 26.2324 14.4353 26.1107 14.4711 25.9746Z" fill="#19B3BD"></path>
<path d="M23.996 7.348C23.996 8.572 22.7 8.572 22.232 8.572H16.184L13.772 20.884C13.664 21.424 13.484 22.432 12.296 22.432C11.504 22.432 11.252 21.856 11.252 21.46C11.252 21.316 11.468 20.56 11.612 20.128L15.14 8.572H12.152C11.396 8.572 9.344 8.572 7.58 11.344C7.364 11.632 7.292 11.776 7.004 11.776C6.572 11.776 6.572 11.416 6.572 11.416C6.572 11.2 7.58 9.472 8.768 8.176C10.352 6.484 11.756 6.484 12.476 6.484H22.556C23.24 6.484 23.996 6.484 23.996 7.348Z" fill="black"></path>
</g>
<defs>
<clipPath id="SvgjsClipPath1023">
<rect width="32" height="32" fill="white"></rect>
</clipPath>
</defs>
</svg><style>@media (prefers-color-scheme: light) { :root { filter: none; } }
@media (prefers-color-scheme: dark) { :root { filter: none; } }
</style></svg>