<svg width="435" height="96" viewBox="0 0 435 96" fill="none" xmlns="http://www.w3.org/2000/svg">
<path d="M43.12 69H38.512V27.336H22.96V23.24H58.736V27.336H43.12V69ZM69.161 69H64.489V23.24H69.161V69ZM83.536 69H78.864V23.24H109.456V27.336H83.536V43.528H104.912V47.624H83.536V69ZM119.849 69H115.177V23.24H145.769V27.336H119.849V43.528H141.225V47.624H119.849V69ZM146.689 69H141.889L158.977 23.24H164.225L181.441 69H176.449L171.841 56.328H151.297L146.689 69ZM161.537 27.656L152.833 52.168H170.369L161.665 27.656H161.537ZM191.474 69H186.802V23.24H192.498L217.266 62.408H217.394V23.24H222.066V69H216.37L191.602 29.832H191.474V69ZM249.018 69H244.346V50.248L227.642 23.24H232.698L246.65 46.6H246.778L260.794 23.24H265.786L249.018 50.248V69Z" fill="black"/>
<line x1="7" y1="9.5" x2="57" y2="9.5" stroke="black"/>
<line x1="7.5" y1="59" x2="7.5" y2="10" stroke="black"/>
<line x1="378" y1="83.5" x2="428" y2="83.5" stroke="#19B3BD"/>
<line x1="427.5" y1="84" x2="427.5" y2="35" stroke="#19B3BD"/>
<path fill-rule="evenodd" clip-rule="evenodd" d="M255.729 68.996H259.39V50.244L276.158 23.236H271.179L262.357 37.9169L257.15 46.596H257.143L255.729 48.9487V68.996ZM276.058 46.084C276.058 59.844 284.826 69.828 298.074 69.828C311.258 69.828 320.026 59.844 320.026 46.084C320.026 32.324 311.258 22.404 298.074 22.404C284.826 22.404 276.058 32.324 276.058 46.084ZM315.162 46.084C315.162 56.9 309.338 65.732 298.074 65.732C286.746 65.732 280.922 56.9 280.922 46.084C280.922 35.268 286.746 26.5 298.074 26.5C309.338 26.5 315.162 35.268 315.162 46.084ZM327.424 68.996H332.096V29.828H332.224L356.992 68.996H362.688V23.236H358.016V62.404H357.888L333.12 23.236H327.424V68.996ZM370.184 46.148C370.184 59.78 377.416 69.828 390.856 69.828C398.664 69.828 403.4 66.244 406.28 60.868H406.408L407.816 68.996H411.016V45.508H391.176V49.668H406.344C406.344 59.268 399.752 65.732 390.856 65.732C379.016 65.732 375.048 55.748 375.048 46.148C375.048 36.612 379.976 26.5 391.432 26.5C398.792 26.5 404.104 30.148 405.448 36.804H410.248C408.648 28.164 402.376 22.404 391.432 22.404C378.44 22.404 370.184 32.58 370.184 46.148Z" fill="#19B3BD"/>
</svg>
