<svg width="435" height="96" viewBox="0 0 435 96" fill="none" xmlns="http://www.w3.org/2000/svg">
<path d="M39.64 70V29.424H23.256V24.88H61.336V29.424H44.952V70H39.64ZM67.068 70V24.88H72.316V70H67.068ZM83.443 70V24.88H111.347V29.296H88.691V45.04H110.067V49.456H88.691V70H83.443ZM118.506 70V24.88H146.41V29.296H123.754V45.04H145.13V49.456H123.754V70H118.506ZM145.529 70L165.433 24.88H169.913L189.817 70H184.377L179.385 58.48H155.897L150.969 70H145.529ZM167.609 31.024L157.817 54.064H177.529L167.737 31.024H167.609ZM196.506 70V24.88H200.602L227.802 61.168V24.88H232.666V70H228.698L201.434 33.584V70H196.506ZM254.76 70V48.624L237.48 24.88H243.625L257.513 44.016L271.337 24.88H277.289L260.009 48.752V70H254.76Z" fill="black"/>
<line x1="7" y1="7.5" x2="57" y2="7.5" stroke="black"/>
<line x1="7.5" y1="57" x2="7.5" y2="8" stroke="black"/>
<line x1="378" y1="86.5" x2="428" y2="86.5" stroke="#19B3BD"/>
<line x1="427.5" y1="87" x2="427.5" y2="38" stroke="#19B3BD"/>
<path fill-rule="evenodd" clip-rule="evenodd" d="M257.52 69.996H260.006V48.748L277.286 24.876H271.334L257.52 43.9982V69.996ZM298.134 70.572C293.953 70.572 290.305 69.6333 287.19 67.756C284.118 65.836 281.729 63.148 280.022 59.692C278.358 56.236 277.526 52.14 277.526 47.404C277.526 42.668 278.358 38.572 280.022 35.116C281.686 31.66 284.054 28.9933 287.126 27.116C290.241 25.2387 293.91 24.3 298.134 24.3C302.401 24.3 306.07 25.2387 309.142 27.116C312.257 28.9933 314.646 31.66 316.31 35.116C318.017 38.5293 318.87 42.604 318.87 47.34C318.87 52.076 318.017 56.1933 316.31 59.692C314.604 63.148 312.193 65.836 309.078 67.756C306.006 69.6333 302.358 70.572 298.134 70.572ZM298.134 65.9C302.956 65.9 306.689 64.2787 309.334 61.036C311.98 57.7933 313.302 53.2493 313.302 47.404C313.302 41.5587 311.98 37.036 309.334 33.836C306.689 30.5933 302.956 28.972 298.134 28.972C293.398 28.972 289.708 30.5933 287.062 33.836C284.417 37.036 283.094 41.5587 283.094 47.404C283.094 53.2067 284.417 57.7507 287.062 61.036C289.708 64.2787 293.398 65.9 298.134 65.9ZM328.253 69.996V24.876H332.349L359.549 61.164V24.876H364.413V69.996H360.445L333.181 33.58V69.996H328.253ZM396.236 70.572C388.983 70.572 383.457 68.524 379.66 64.428C375.863 60.332 373.964 54.6787 373.964 47.468C373.964 42.6893 374.817 38.572 376.524 35.116C378.231 31.66 380.684 28.9933 383.884 27.116C387.084 25.2387 390.945 24.3 395.468 24.3C398.668 24.3 401.612 24.7907 404.3 25.772C406.988 26.7107 409.271 28.0973 411.148 29.932L409.1 34.156C407.052 32.364 404.94 31.0627 402.764 30.252C400.588 29.4413 398.135 29.036 395.404 29.036C390.284 29.036 386.359 30.6573 383.628 33.9C380.897 37.1 379.532 41.6227 379.532 47.468C379.532 53.4413 380.94 58.0067 383.756 61.164C386.572 64.3213 390.775 65.9 396.364 65.9C399.991 65.9 403.468 65.2813 406.796 64.044V50.668H395.34V46.508H411.34V67.372C410.145 68.012 408.695 68.5667 406.988 69.036C405.324 69.5053 403.553 69.868 401.676 70.124C399.799 70.4227 397.985 70.572 396.236 70.572Z" fill="#19B3BD"/>
</svg>
